<?xml version="1.0" encoding="UTF-8" standalone="no"?>
<!-- Created with Inkscape (http://www.inkscape.org/) -->

<svg
   xmlns:dc="http://purl.org/dc/elements/1.1/"
   xmlns:cc="http://creativecommons.org/ns#"
   xmlns:rdf="http://www.w3.org/1999/02/22-rdf-syntax-ns#"
   xmlns:svg="http://www.w3.org/2000/svg"
   xmlns="http://www.w3.org/2000/svg"
   xmlns:xlink="http://www.w3.org/1999/xlink"
   xmlns:sodipodi="http://sodipodi.sourceforge.net/DTD/sodipodi-0.dtd"
   xmlns:inkscape="http://www.inkscape.org/namespaces/inkscape"
   width="156.77319"
   height="156.77319"
   id="svg2"
   version="1.1"
   inkscape:version="0.48.0 r9654"
   sodipodi:docname="logo_narrow.svg"
   inkscape:export-filename="/home/felix/gitRepositories/efko/static/imgs/logo_twitter.png"
   inkscape:export-xdpi="73.481949"
   inkscape:export-ydpi="73.481949">
  <defs
     id="defs4">
    <linearGradient
       id="linearGradient3871">
      <stop
         style="stop-color:#101010;stop-opacity:1;"
         offset="0"
         id="stop3873" />
      <stop
         style="stop-color:#494949;stop-opacity:1;"
         offset="1"
         id="stop3875" />
    </linearGradient>
    <linearGradient
       inkscape:collect="always"
       xlink:href="#linearGradient3871"
       id="linearGradient3877"
       x1="449.00787"
       y1="609.66852"
       x2="652.46454"
       y2="609.66852"
       gradientUnits="userSpaceOnUse"
       spreadMethod="pad" />
    <linearGradient
       inkscape:collect="always"
       xlink:href="#linearGradient3871"
       id="linearGradient3938"
       gradientUnits="userSpaceOnUse"
       spreadMethod="pad"
       x1="449.00787"
       y1="609.66852"
       x2="652.46454"
       y2="609.66852" />
  </defs>
  <sodipodi:namedview
     id="base"
     pagecolor="#ffffff"
     bordercolor="#666666"
     borderopacity="1.0"
     inkscape:pageopacity="0.0"
     inkscape:pageshadow="2"
     inkscape:zoom="2.8557769"
     inkscape:cx="-52.798916"
     inkscape:cy="80.886542"
     inkscape:document-units="px"
     inkscape:current-layer="layer1"
     showgrid="false"
     inkscape:window-width="1400"
     inkscape:window-height="973"
     inkscape:window-x="0"
     inkscape:window-y="24"
     inkscape:window-maximized="1"
     fit-margin-top="0"
     fit-margin-left="0"
     fit-margin-right="0"
     fit-margin-bottom="0"
     showguides="true"
     inkscape:guide-bbox="true" />
  <metadata
     id="metadata7">
    <rdf:RDF>
      <cc:Work
         rdf:about="">
        <dc:format>image/svg+xml</dc:format>
        <dc:type
           rdf:resource="http://purl.org/dc/dcmitype/StillImage" />
        <dc:title></dc:title>
      </cc:Work>
    </rdf:RDF>
  </metadata>
  <g
     inkscape:label="Layer 1"
     inkscape:groupmode="layer"
     id="layer1"
     transform="translate(-416.65195,-422.62368)">
    <rect
       style="fill:#bb0f05;fill-opacity:1;stroke:none"
       id="rect3774"
       width="81.562393"
       height="156.77299"
       x="415.2836"
       y="422.62387" />
    <g
       id="g3926">
      <path
         transform="matrix(0.77054818,0,0,0.77054818,70.669764,31.231304)"
         d="m 652.46455,609.66852 c 0,56.18301 -45.54533,101.72835 -101.72834,101.72835 -56.18302,0 -101.72835,-45.54534 -101.72835,-101.72835 0,-56.18302 45.54533,-101.72835 101.72835,-101.72835 56.18301,0 101.72834,45.54533 101.72834,101.72835 z"
         sodipodi:ry="101.72835"
         sodipodi:rx="101.72835"
         sodipodi:cy="609.66852"
         sodipodi:cx="550.73621"
         id="path3764"
         style="color:#000000;fill:url(#linearGradient3938);fill-opacity:1;fill-rule:nonzero;stroke:none;marker:none;visibility:visible;display:inline;overflow:visible;enable-background:accumulate"
         sodipodi:type="arc" />
      <path
         transform="matrix(0.67272925,0,0,0.67272925,124.54253,90.868032)"
         d="m 652.46455,609.66852 c 0,56.18301 -45.54533,101.72835 -101.72834,101.72835 -56.18302,0 -101.72835,-45.54534 -101.72835,-101.72835 0,-56.18302 45.54533,-101.72835 101.72835,-101.72835 56.18301,0 101.72834,45.54533 101.72834,101.72835 z"
         sodipodi:ry="101.72835"
         sodipodi:rx="101.72835"
         sodipodi:cy="609.66852"
         sodipodi:cx="550.73621"
         id="path3764-1"
         style="color:#000000;fill:none;stroke:#000000;stroke-opacity:1;marker:none;visibility:visible;display:inline;overflow:visible;enable-background:accumulate"
         sodipodi:type="arc" />
      <path
         transform="matrix(0.32819269,0,0,0.32819269,314.29079,300.92163)"
         d="m 652.46455,609.66852 c 0,56.18301 -45.54533,101.72835 -101.72834,101.72835 -56.18302,0 -101.72835,-45.54534 -101.72835,-101.72835 0,-56.18302 45.54533,-101.72835 101.72835,-101.72835 56.18301,0 101.72834,45.54533 101.72834,101.72835 z"
         sodipodi:ry="101.72835"
         sodipodi:rx="101.72835"
         sodipodi:cy="609.66852"
         sodipodi:cx="550.73621"
         id="path3764-3"
         style="fill:#bb0f05;fill-opacity:1;stroke:none"
         sodipodi:type="arc" />
      <path
         transform="matrix(0.08244015,0,0,0.08244015,449.63561,450.74921)"
         d="m 652.46455,609.66852 c 0,56.18301 -45.54533,101.72835 -101.72834,101.72835 -56.18302,0 -101.72835,-45.54534 -101.72835,-101.72835 0,-56.18302 45.54533,-101.72835 101.72835,-101.72835 56.18301,0 101.72834,45.54533 101.72834,101.72835 z"
         sodipodi:ry="101.72835"
         sodipodi:rx="101.72835"
         sodipodi:cy="609.66852"
         sodipodi:cx="550.73621"
         id="path3764-3-8"
         style="fill:#ffffff;fill-opacity:1;stroke:none"
         sodipodi:type="arc" />
      <path
         transform="matrix(0.57490903,0,0,0.57490903,178.41567,150.50594)"
         d="m 652.46455,609.66852 c 0,56.18301 -45.54533,101.72835 -101.72834,101.72835 -56.18302,0 -101.72835,-45.54534 -101.72835,-101.72835 0,-56.18302 45.54533,-101.72835 101.72835,-101.72835 56.18301,0 101.72834,45.54533 101.72834,101.72835 z"
         sodipodi:ry="101.72835"
         sodipodi:rx="101.72835"
         sodipodi:cy="609.66852"
         sodipodi:cx="550.73621"
         id="path3764-1-5"
         style="color:#000000;fill:none;stroke:#000000;stroke-opacity:1;marker:none;visibility:visible;display:inline;overflow:visible;enable-background:accumulate"
         sodipodi:type="arc" />
      <path
         transform="matrix(0.4770888,0,0,0.4770888,232.28881,210.14386)"
         d="m 652.46455,609.66852 c 0,56.18301 -45.54533,101.72835 -101.72834,101.72835 -56.18302,0 -101.72835,-45.54534 -101.72835,-101.72835 0,-56.18302 45.54533,-101.72835 101.72835,-101.72835 56.18301,0 101.72834,45.54533 101.72834,101.72835 z"
         sodipodi:ry="101.72835"
         sodipodi:rx="101.72835"
         sodipodi:cy="609.66852"
         sodipodi:cx="550.73621"
         id="path3764-1-5-9"
         style="color:#000000;fill:none;stroke:#000000;stroke-opacity:1;marker:none;visibility:visible;display:inline;overflow:visible;enable-background:accumulate"
         sodipodi:type="arc" />
    </g>
  </g>
</svg>
